<svg xmlns="http://www.w3.org/2000/svg" viewBox="0 0 472 534" fill="none">
    <path d="M183.965 210.373V189.591C176.751 188.448 169.464 187.822 162.161 187.717C91.4522 187.567 28.849 233.388 7.6184 300.834C-13.6156 368.278 11.4478 441.695 69.4891 482.08C26.0126 435.549 13.94 367.81 38.6662 309.125C63.3906 250.44 120.297 211.762 183.965 210.373Z" fill="#25F4EE"/>
    <path d="M187.883 445.796C227.416 445.743 259.914 414.596 261.644 375.101V22.649H326.036C324.722 15.2845 324.095 7.8138 324.162 0.333252H236.092V352.444C234.627 392.141 202.055 423.585 162.331 423.65C150.46 423.549 138.783 420.63 128.261 415.133C135.08 424.58 144.035 432.282 154.397 437.611C164.758 442.94 176.232 445.744 187.883 445.796ZM446.303 142.234V122.644C422.605 122.652 399.433 115.659 379.696 102.543C396.998 122.656 420.379 136.589 446.303 142.234Z" fill="#25F4EE"/>
    <path d="M379.696 102.543C360.254 80.4029 349.536 51.9431 349.544 22.4786H326.036C329.072 38.7693 335.396 54.2703 344.622 68.0358C353.848 81.8012 365.782 93.5424 379.696 102.543ZM162.161 275.787C128.234 275.961 98.7806 299.204 90.7231 332.159C82.6656 365.115 98.0719 399.324 128.091 415.133C120.114 404.12 115.336 391.115 114.287 377.557C113.237 363.999 115.956 350.415 122.143 338.305C128.33 326.195 137.745 316.031 149.346 308.937C160.948 301.842 174.284 298.093 187.883 298.103C195.276 298.195 202.618 299.343 209.688 301.51V211.907C202.469 210.825 195.183 210.256 187.883 210.203H183.965V278.343C176.859 276.437 169.514 275.577 162.161 275.787Z" fill="#FE2C55"/>
    <path d="M446.302 142.234V210.373C402.433 210.288 359.702 196.402 324.162 170.682V349.719C323.975 439.057 251.498 511.38 162.161 511.38C128.983 511.439 96.604 501.202 69.4908 482.08C114.739 530.745 185.158 546.765 247.006 522.463C308.853 498.159 349.529 438.486 349.544 372.035V193.509C385.203 219.061 427.987 232.766 471.855 232.689V144.959C463.266 144.932 454.704 144.019 446.302 142.234Z" fill="#FE2C55"/>
    <path d="M324.162 349.719V170.682C359.81 196.255 402.601 209.962 446.473 209.862V141.723C420.554 136.25 397.117 122.499 379.696 102.543C365.782 93.5424 353.848 81.8012 344.622 68.0358C335.396 54.2703 329.072 38.7693 326.036 22.4786H261.644V375.101C260.356 406.561 239.284 433.752 209.143 442.852C179 451.952 146.403 440.965 127.92 415.474C97.9016 399.665 82.4952 365.456 90.5527 332.5C98.6102 299.544 128.064 276.302 161.99 276.128C169.386 276.194 176.732 277.342 183.795 279.535V211.396C119.769 212.481 62.4332 251.291 37.6373 310.329C12.843 369.367 25.2699 437.477 69.3204 483.954C96.7011 502.445 129.127 512.024 162.161 511.38C251.498 511.38 323.975 439.057 324.162 349.719Z" fill="black"/>
<script xmlns=""/></svg>